<svg id="Layer_1" data-name="Layer 1" xmlns="http://www.w3.org/2000/svg" viewBox="0 0 74 32"><defs><style>.cls-1{fill:#808285;}.cls-2{fill:#fff;stroke:#808285;stroke-miterlimit:10;stroke-width:0.68px;}</style></defs><title>logo-1</title><path class="cls-1" d="M49.55,17c-1,1.18-1.93,2.25-9.47,8.25h0c-7.58-6-8.49-7.07-9.47-8.25C27,12.64,28,7.75,30.84,5.69,33.4,3.88,37,4.55,40.08,8c3-3.43,6.67-4.15,9.24-2.33C52.2,7.75,53.22,12.64,49.55,17Z"/><path class="cls-1" d="M19.38,31H14.8L13,16.48,11,31H6.58L2.47,3.05H7.71L9.47,20l1.93-17h3.86L17,20,19,3.05h4.82Z"/><path class="cls-2" d="M17.32,28.95H12.75l-1.8-14.52L9,28.95H4.53L.41,1H5.66L7.42,18,9.35,1h3.86L15,18,16.91,1h4.82Z"/><path class="cls-1" d="M69.72,8V31H64.35V8H60.49V3.05H73.59V8Z"/><path class="cls-2" d="M67.67,5.91v23H62.3v-23H58.44V1H71.53V5.91Z"/></svg>