<svg id="Layer_1" data-name="Layer 1" xmlns="http://www.w3.org/2000/svg" viewBox="0 0 140 140"><defs><style>.cls-1{fill:#fff;}.cls-2,.cls-3{fill:#808285;}.cls-3{font-size:8px;font-family:HelveticaCE, Helvetica;}</style></defs><title>logo-2</title><circle class="cls-1" cx="70" cy="70" r="70"/><path class="cls-2" d="M50.72,45.91a.83.83,0,0,0-.48,0h0l-.09,0-.11.06-.14.13-.06.06s0,0,0,0a.74.74,0,0,0-.1.18l0,.09a1,1,0,0,0,0,.22v.09h0L55,94.1a.89.89,0,0,0,.87.77.88.88,0,0,0,.61-.25L68.14,83.38,78.82,93a.89.89,0,0,0,.58.23.88.88,0,0,0,.88-.88l-.11-17.72,20.56,0a.88.88,0,0,0,.41-1.65L50.92,46a.33.33,0,0,0-.13-.06l-.08,0Zm1,3.85L72.57,76.63l-16,15.5L51.75,49.75Zm4.24.92,41.3,22.2-17.63,0L56,50.68ZM58,55l20.44,19.2.09,16.24L69.4,82.15l5-4.8a.87.87,0,0,0,.08-1.16L58,55Z"/><text class="cls-3" transform="translate(115.39 103.99) rotate(130)">W</text><text class="cls-3" transform="matrix(-0.74, 0.67, -0.67, -0.74, 109.38, 110.86)">E</text><text class="cls-3" transform="matrix(-0.8, 0.6, -0.6, -0.8, 104.1, 115.41)"> </text><text class="cls-3" transform="matrix(-0.85, 0.52, -0.52, -0.85, 100.99, 117.68)">L</text><text class="cls-3" transform="matrix(-0.91, 0.42, -0.42, -0.91, 95.81, 120.81)">O</text><text class="cls-3" transform="translate(89.02 123.8) rotate(162.54)">V</text><text class="cls-3" transform="matrix(-0.98, 0.18, -0.18, -0.98, 82.38, 125.78)">E</text><text class="cls-3" transform="translate(75.52 126.89) rotate(175.02)"> </text><text class="cls-3" transform="translate(72.04 127.17) rotate(179.07)">T</text><text class="cls-3" transform="matrix(-0.99, -0.12, 0.12, -0.99, 65.89, 127.18)">O</text><text class="cls-3" transform="translate(58.14 126.1) rotate(-167.49)"> </text><text class="cls-3" transform="translate(54.74 125.35) rotate(-162.61)">T</text><text class="cls-3" transform="translate(48.58 123.34) rotate(-155.58)">R</text><text class="cls-3" transform="matrix(-0.85, -0.52, 0.52, -0.85, 41.93, 120.2)">A</text><text class="cls-3" transform="matrix(-0.79, -0.62, 0.62, -0.79, 36.52, 116.79)">V</text><text class="cls-3" transform="translate(31.12 112.45) rotate(-135)">E</text><text class="cls-3" transform="matrix(-0.62, -0.78, 0.78, -0.62, 26.3, 107.47)">L</text><text class="cls-3" transform="matrix(0.64, -0.77, 0.77, 0.64, 23.44, 36.77)">W</text><text class="cls-3" transform="translate(29.44 29.9) rotate(-41.97)">E</text><text class="cls-3" transform="translate(34.73 25.35) rotate(-36.53)"> </text><text class="cls-3" transform="translate(37.83 23.08) rotate(-31.54)">L</text><text class="cls-3" transform="translate(43.02 19.95) rotate(-24.52)">O</text><text class="cls-3" transform="translate(49.8 16.96) rotate(-17.45)">V</text><text class="cls-3" transform="translate(56.45 14.98) rotate(-10.42)">E</text><text class="cls-3" transform="translate(63.3 13.87) rotate(-4.98)"> </text><text class="cls-3" transform="translate(66.79 13.6) rotate(-0.93)">T</text><text class="cls-3" transform="matrix(0.99, 0.12, -0.12, 0.99, 72.94, 13.58)">O</text><text class="cls-3" transform="translate(80.69 14.66) rotate(12.51)"> </text><text class="cls-3" transform="matrix(0.95, 0.3, -0.3, 0.95, 84.08, 15.41)">T</text><text class="cls-3" transform="translate(90.25 17.42) rotate(24.42)">R</text><text class="cls-3" transform="matrix(0.85, 0.52, -0.52, 0.85, 96.9, 20.56)">A</text><text class="cls-3" transform="translate(102.31 23.96) rotate(38.06)">V</text><text class="cls-3" transform="matrix(0.71, 0.71, -0.71, 0.71, 107.71, 28.31)">E</text><text class="cls-3" transform="matrix(0.62, 0.78, -0.78, 0.62, 112.52, 33.29)">L</text><circle class="cls-2" cx="12.8" cy="70.32" r="1.29"/><circle class="cls-2" cx="126.57" cy="70.38" r="1.29"/></svg>